<svg width="592" height="233" viewBox="0 0 592 233" fill="none" xmlns="http://www.w3.org/2000/svg">
<path d="M117.057 1.36156C124.019 -2.04286 131.684 1.11433 135.516 8.85179C138.965 15.8469 139.54 27.4852 137.56 50.4514C136.474 62.8938 135.9 74.841 135.963 82.6409C136.027 91.8644 137.433 96.0742 141.776 100.098C144.075 102.265 144.97 102.76 147.014 102.76C153.274 102.76 157.745 97.8075 161.13 86.9748C164.069 77.6275 166.878 60.6038 167.836 46.428C168.986 29.776 172.819 21.5426 180.675 18.9426C183.166 18.1379 183.869 18.1379 186.616 18.9426C190.448 19.995 193.961 23.5236 195.046 27.3616C197.09 34.7281 193.45 46.9232 182.528 69.0227C171.669 91.0602 168.667 100.408 170.072 107.836C170.838 111.612 173.33 114.955 176.524 116.502C179.27 117.802 181.314 117.864 184.763 116.688C191.789 114.273 196.069 108.95 202.711 94.3411C209.226 79.8558 213.443 73.4178 219.638 68.7131C220.469 68.0941 222.321 67.7844 225.77 67.7844C230.305 67.7844 230.817 67.9079 232.605 69.5793C234.968 71.746 236.117 74.8416 235.99 78.7414C235.926 84.0651 232.285 89.9462 224.301 97.8078C214.145 107.774 208.716 115.45 205.203 124.921C202.937 130.921 201.594 136.822 200.605 146.322C188.706 130.376 169.354 120 147.5 120C111.326 120 82.0005 148.43 82.0005 183.5C82.0005 191.91 83.6877 199.938 86.7505 207.283C82.554 203.909 77.8753 199.899 72.3452 194.996C56.3129 180.82 48.6481 175.001 38.1089 168.996C34.2765 166.892 28.4 163.549 25.0786 161.692C15.2422 156.12 9.1105 151.539 4.44776 146.092C1.44573 142.687 0.807187 141.264 0.168458 136.497C-1.81163 121.207 13.9647 117.245 31.6577 128.573C38.5561 132.969 42.1965 136.869 46.7954 144.731C51.7136 153.149 54.2051 156.121 58.5483 158.473C66.4686 162.93 76.1135 159.154 82.7563 149.064C91.9541 135.136 91.6355 118.483 81.6714 95.0842C79.3081 89.5129 72.1534 75.8936 68.7681 70.508C67.5547 68.5895 66.5975 66.8564 66.5972 66.6702C66.5972 66.4844 64.8723 63.4511 62.7007 59.9846C57.2714 51.0705 53.758 43.7653 52.8638 39.5559C50.6285 29.2803 56.4407 21.0474 65.9575 21.0471C70.3009 21.0471 73.2397 22.4709 75.9224 25.8137C78.5412 29.0946 79.4991 32.685 81.9263 47.6653C86.2058 74.1599 88.8248 83.0128 95.0845 92.4221C101.663 102.265 113.991 105.793 120.059 99.5412C124.977 94.4652 125.361 86.6645 121.464 71.9934C119.995 66.6079 118.59 61.2223 118.334 60.0461C118.015 58.8698 117.377 56.0841 116.866 53.8557C113.033 38.1323 109.903 21.0472 109.839 16.095C109.775 8.72845 112.203 3.77579 117.057 1.36156Z" fill="#01002F"/>
<circle cx="146" cy="183" r="50" fill="#1437FF"/>
<path d="M147.791 215.055C131.568 215.085 118.39 201.636 118.359 185.015C118.328 168.394 131.455 154.896 147.679 154.866C163.903 154.836 177.08 168.285 177.111 184.906C177.142 201.526 164.015 215.025 147.791 215.055ZM147.699 165.377C137.141 165.397 128.599 174.18 128.62 184.996C128.64 195.812 137.214 204.563 147.772 204.544C158.329 204.524 166.871 195.74 166.851 184.925C166.831 174.109 158.256 165.357 147.699 165.377Z" fill="white"/>
<path d="M146.924 199.351C146.855 200.577 147.796 201.644 149.021 201.553C151.569 201.364 154.068 200.597 156.359 199.289C158.789 197.902 160.912 195.949 162.584 193.574C163.198 192.701 162.925 191.512 162.048 190.901V190.901C161.058 190.211 159.701 190.525 158.963 191.475C157.731 193.062 156.229 194.378 154.537 195.343C152.887 196.285 151.098 196.869 149.269 197.072C148.048 197.208 146.993 198.125 146.924 199.351V199.351Z" fill="white"/>
<ellipse cx="142.015" cy="198.055" rx="2.55038" ry="2.51075" transform="rotate(89.8932 142.015 198.055)" fill="white"/>
<path d="M99.2582 129.916C102.077 129.463 104.928 130.493 106.829 132.651L132.376 161.653L125.236 169.827L95.3013 145.273C92.5446 143.012 91.4619 139.206 92.552 135.778V135.778C93.5262 132.714 96.1281 130.42 99.2582 129.916V129.916Z" fill="white"/>
<path d="M252.87 150.5C257.863 150.5 262.133 152.273 265.68 155.82C269.227 159.367 271 163.637 271 168.63V196H259.87V168.63C259.87 166.67 259.193 165.013 257.84 163.66C256.487 162.307 254.83 161.63 252.87 161.63C250.957 161.63 249.323 162.307 247.97 163.66C246.617 165.013 245.94 166.67 245.94 168.63V196H234.81V168.63C234.81 166.67 234.133 165.013 232.78 163.66C231.427 162.307 229.77 161.63 227.81 161.63C225.897 161.63 224.263 162.307 222.91 163.66C221.557 165.013 220.88 166.67 220.88 168.63V196H209.75V168.63C209.75 163.637 211.523 159.367 215.07 155.82C218.617 152.273 222.863 150.5 227.81 150.5C232.663 150.5 236.84 152.203 240.34 155.61C243.887 152.203 248.063 150.5 252.87 150.5ZM276.166 151.69H287.296V196H276.166V151.69ZM313.535 150.64C319.368 150.64 324.338 152.81 328.445 157.15C332.552 161.443 334.605 166.647 334.605 172.76V196H323.545V185.99H303.595V196H292.465V172.76C292.465 166.647 294.518 161.443 298.625 157.15C302.778 152.81 307.748 150.64 313.535 150.64ZM303.595 174.93H323.545V172.76C323.545 169.727 322.565 167.137 320.605 164.99C318.645 162.797 316.288 161.7 313.535 161.7C310.782 161.7 308.425 162.797 306.465 164.99C304.552 167.137 303.595 169.727 303.595 172.76V174.93ZM337.429 196.07V151.83H348.559V196.07H337.429ZM364.099 172.62L366.969 180.81C367.949 183.61 369.536 185.01 371.729 185.01H378.799V196.07H371.729C368.462 196.07 365.382 194.95 362.489 192.71C359.642 190.47 357.659 187.763 356.539 184.59L351.359 169.75L364.939 151.83H378.799L364.099 172.62ZM406.175 152.04C410.842 152.04 414.809 153.767 418.075 157.22C421.202 160.627 422.765 164.687 422.765 169.4C422.765 174.067 421.202 178.103 418.075 181.51C414.809 184.963 410.842 186.69 406.175 186.69H392.595V196H381.605V152.04H406.175ZM406.175 175.7C407.762 175.7 409.092 175.047 410.165 173.74C411.239 172.433 411.775 170.987 411.775 169.4C411.775 167.767 411.239 166.297 410.165 164.99C409.092 163.683 407.762 163.03 406.175 163.03H392.595V175.7H406.175ZM449.064 150.71C455.411 150.71 460.777 153.02 465.164 157.64C469.597 162.213 471.814 167.697 471.814 174.09C471.814 180.437 469.597 185.92 465.164 190.54C460.777 195.16 455.411 197.47 449.064 197.47C442.717 197.47 437.327 195.16 432.894 190.54C428.461 185.92 426.244 180.437 426.244 174.09C426.244 167.697 428.461 162.213 432.894 157.64C437.327 153.02 442.717 150.71 449.064 150.71ZM449.064 186.41C452.331 186.41 455.107 185.197 457.394 182.77C459.681 180.297 460.824 177.403 460.824 174.09C460.824 170.73 459.681 167.837 457.394 165.41C455.107 162.937 452.331 161.7 449.064 161.7C445.751 161.7 442.951 162.937 440.664 165.41C438.377 167.837 437.234 170.73 437.234 174.09C437.234 177.403 438.377 180.297 440.664 182.77C442.951 185.197 445.751 186.41 449.064 186.41ZM519.16 151.69C524.993 151.69 529.963 153.86 534.07 158.2C538.177 162.54 540.23 167.767 540.23 173.88C540.23 179.993 538.177 185.22 534.07 189.56C529.963 193.853 524.993 196 519.16 196H498.09V151.69H519.16ZM519.16 184.87C521.913 184.87 524.27 183.797 526.23 181.65C528.19 179.503 529.17 176.913 529.17 173.88C529.17 170.847 528.19 168.257 526.23 166.11C524.27 163.917 521.913 162.82 519.16 162.82H509.22V184.87H519.16ZM566.574 150.71C572.921 150.71 578.287 153.02 582.674 157.64C587.107 162.213 589.324 167.697 589.324 174.09C589.324 180.437 587.107 185.92 582.674 190.54C578.287 195.16 572.921 197.47 566.574 197.47C560.227 197.47 554.837 195.16 550.404 190.54C545.971 185.92 543.754 180.437 543.754 174.09C543.754 167.697 545.971 162.213 550.404 157.64C554.837 153.02 560.227 150.71 566.574 150.71ZM566.574 186.41C569.841 186.41 572.617 185.197 574.904 182.77C577.191 180.297 578.334 177.403 578.334 174.09C578.334 170.73 577.191 167.837 574.904 165.41C572.617 162.937 569.841 161.7 566.574 161.7C563.261 161.7 560.461 162.937 558.174 165.41C555.887 167.837 554.744 170.73 554.744 174.09C554.744 177.403 555.887 180.297 558.174 182.77C560.461 185.197 563.261 186.41 566.574 186.41Z" fill="#01002F"/>
</svg>
