<svg width="596" height="242" viewBox="0 0 596 242" fill="none" xmlns="http://www.w3.org/2000/svg">
<path d="M256.87 165.5C261.863 165.5 266.133 167.273 269.68 170.82C273.227 174.367 275 178.637 275 183.63V211H263.87V183.63C263.87 181.67 263.193 180.013 261.84 178.66C260.487 177.307 258.83 176.63 256.87 176.63C254.957 176.63 253.323 177.307 251.97 178.66C250.617 180.013 249.94 181.67 249.94 183.63V211H238.81V183.63C238.81 181.67 238.133 180.013 236.78 178.66C235.427 177.307 233.77 176.63 231.81 176.63C229.897 176.63 228.263 177.307 226.91 178.66C225.557 180.013 224.88 181.67 224.88 183.63V211H213.75V183.63C213.75 178.637 215.523 174.367 219.07 170.82C222.617 167.273 226.863 165.5 231.81 165.5C236.663 165.5 240.84 167.203 244.34 170.61C247.887 167.203 252.063 165.5 256.87 165.5ZM280.166 166.69H291.296V211H280.166V166.69ZM317.535 165.64C323.368 165.64 328.338 167.81 332.445 172.15C336.552 176.443 338.605 181.647 338.605 187.76V211H327.545V200.99H307.595V211H296.465V187.76C296.465 181.647 298.518 176.443 302.625 172.15C306.778 167.81 311.748 165.64 317.535 165.64ZM307.595 189.93H327.545V187.76C327.545 184.727 326.565 182.137 324.605 179.99C322.645 177.797 320.288 176.7 317.535 176.7C314.782 176.7 312.425 177.797 310.465 179.99C308.552 182.137 307.595 184.727 307.595 187.76V189.93ZM341.429 211.07V166.83H352.559V211.07H341.429ZM368.099 187.62L370.969 195.81C371.949 198.61 373.536 200.01 375.729 200.01H382.799V211.07H375.729C372.462 211.07 369.382 209.95 366.489 207.71C363.642 205.47 361.659 202.763 360.539 199.59L355.359 184.75L368.939 166.83H382.799L368.099 187.62ZM410.175 167.04C414.842 167.04 418.809 168.767 422.075 172.22C425.202 175.627 426.765 179.687 426.765 184.4C426.765 189.067 425.202 193.103 422.075 196.51C418.809 199.963 414.842 201.69 410.175 201.69H396.595V211H385.605V167.04H410.175ZM410.175 190.7C411.762 190.7 413.092 190.047 414.165 188.74C415.239 187.433 415.775 185.987 415.775 184.4C415.775 182.767 415.239 181.297 414.165 179.99C413.092 178.683 411.762 178.03 410.175 178.03H396.595V190.7H410.175ZM453.064 165.71C459.411 165.71 464.777 168.02 469.164 172.64C473.597 177.213 475.814 182.697 475.814 189.09C475.814 195.437 473.597 200.92 469.164 205.54C464.777 210.16 459.411 212.47 453.064 212.47C446.717 212.47 441.327 210.16 436.894 205.54C432.461 200.92 430.244 195.437 430.244 189.09C430.244 182.697 432.461 177.213 436.894 172.64C441.327 168.02 446.717 165.71 453.064 165.71ZM453.064 201.41C456.331 201.41 459.107 200.197 461.394 197.77C463.681 195.297 464.824 192.403 464.824 189.09C464.824 185.73 463.681 182.837 461.394 180.41C459.107 177.937 456.331 176.7 453.064 176.7C449.751 176.7 446.951 177.937 444.664 180.41C442.377 182.837 441.234 185.73 441.234 189.09C441.234 192.403 442.377 195.297 444.664 197.77C446.951 200.197 449.751 201.41 453.064 201.41ZM523.16 166.69C528.993 166.69 533.963 168.86 538.07 173.2C542.177 177.54 544.23 182.767 544.23 188.88C544.23 194.993 542.177 200.22 538.07 204.56C533.963 208.853 528.993 211 523.16 211H502.09V166.69H523.16ZM523.16 199.87C525.913 199.87 528.27 198.797 530.23 196.65C532.19 194.503 533.17 191.913 533.17 188.88C533.17 185.847 532.19 183.257 530.23 181.11C528.27 178.917 525.913 177.82 523.16 177.82H513.22V199.87H523.16ZM570.574 165.71C576.921 165.71 582.287 168.02 586.674 172.64C591.107 177.213 593.324 182.697 593.324 189.09C593.324 195.437 591.107 200.92 586.674 205.54C582.287 210.16 576.921 212.47 570.574 212.47C564.227 212.47 558.837 210.16 554.404 205.54C549.971 200.92 547.754 195.437 547.754 189.09C547.754 182.697 549.971 177.213 554.404 172.64C558.837 168.02 564.227 165.71 570.574 165.71ZM570.574 201.41C573.841 201.41 576.617 200.197 578.904 197.77C581.191 195.297 582.334 192.403 582.334 189.09C582.334 185.73 581.191 182.837 578.904 180.41C576.617 177.937 573.841 176.7 570.574 176.7C567.261 176.7 564.461 177.937 562.174 180.41C559.887 182.837 558.744 185.73 558.744 189.09C558.744 192.403 559.887 195.297 562.174 197.77C564.461 200.197 567.261 201.41 570.574 201.41Z" fill="#01002F"/>
<path d="M146 133C173.614 133 196 155.385 196 183C196 210.614 173.614 233 146 233C118.386 232.999 95.9996 210.614 95.9996 183C95.9996 172.034 99.5324 161.894 105.518 153.652L123.304 168.242C120.171 173.038 118.348 178.809 118.36 185.014C118.391 201.635 131.568 215.084 147.792 215.054C164.015 215.024 177.143 201.526 177.112 184.905C177.081 168.284 163.903 154.835 147.679 154.865C141.512 154.877 135.792 156.836 131.073 160.172L115.966 143.023C124.329 136.731 134.728 133 146 133ZM117.057 1.36199C124.019 -2.0427 131.685 1.1143 135.517 8.85223C138.966 15.8474 139.541 27.4854 137.561 50.4509C136.475 62.8934 135.901 74.8415 135.964 82.6413C136.028 91.8644 137.434 96.0737 141.777 100.097C144.076 102.264 144.97 102.759 147.014 102.759C153.274 102.759 157.745 97.8071 161.13 86.9743C164.069 77.6269 166.879 60.6032 167.838 46.4274C168.987 29.7757 172.819 21.5422 180.675 18.9421C183.166 18.1374 183.87 18.1374 186.616 18.9421C190.448 19.9945 193.962 23.5231 195.047 27.361C197.091 34.7276 193.45 46.9229 182.528 69.0221C171.67 91.0596 168.668 100.407 170.073 107.836C170.839 111.612 173.331 114.954 176.524 116.502C179.271 117.802 181.315 117.864 184.764 116.688C191.79 114.274 196.07 108.949 202.713 94.3405C209.228 79.8552 213.444 73.4172 219.639 68.7126C220.47 68.0937 222.322 67.7839 225.771 67.7839C230.305 67.7839 230.817 67.9077 232.605 69.5788C234.968 71.7454 236.119 74.8411 235.991 78.7409C235.927 84.0645 232.285 89.9457 224.301 97.8073C214.146 107.774 208.717 115.45 205.204 124.921C202.938 130.921 201.595 136.822 200.606 146.322C188.707 130.375 169.354 120 147.501 120C132.391 120 118.476 124.96 107.394 133.293L106.83 132.651C104.928 130.492 102.077 129.462 99.2584 129.916C96.1286 130.419 93.5266 132.714 92.5524 135.777C91.4709 139.178 92.5292 142.95 95.2379 145.217C86.9294 155.861 82.0006 169.123 82.0006 183.5C82.0006 191.91 83.6886 199.938 86.7516 207.284C82.555 203.91 77.8765 199.899 72.3463 194.996C56.3141 180.82 48.649 175 38.11 168.996C34.2776 166.891 28.4012 163.548 25.0797 161.691C15.2432 156.12 9.11062 151.539 4.44786 146.091C1.44611 142.687 0.807267 141.263 0.168562 136.497C-1.81146 121.207 13.9658 117.245 31.6588 128.573C38.5569 132.968 42.1977 136.869 46.7965 144.73C51.7146 153.149 54.2061 156.12 58.5494 158.472C66.4697 162.929 76.1146 159.153 82.7574 149.063C91.9552 135.135 91.6356 118.483 81.6715 95.0837C79.3082 89.5124 72.1545 75.8932 68.7691 70.5075C67.5561 68.5893 66.5981 66.8565 66.5973 66.6696C66.5965 66.4826 64.8719 63.4498 62.7008 59.9841C57.2718 51.0705 53.7593 43.7658 52.8649 39.5563C50.6293 29.2804 56.4414 21.0466 65.9586 21.0466C70.3018 21.0466 73.2399 22.4707 75.9225 25.8132C78.5412 29.094 79.5002 32.6854 81.9274 47.6657C86.2068 74.1597 88.8251 83.0124 95.0846 92.4216C101.663 102.264 113.991 105.792 120.059 99.5407C124.977 94.4647 125.361 86.6646 121.464 71.9938C119.995 66.6086 118.591 61.2222 118.336 60.0456C118.016 58.8693 117.377 56.0844 116.866 53.8561C113.033 38.1329 109.903 21.047 109.839 16.0944C109.776 8.72826 112.203 3.77629 117.057 1.36199ZM147.699 165.377C158.256 165.357 166.831 174.109 166.851 184.924C166.871 195.74 158.329 204.523 147.772 204.543C137.215 204.562 128.64 195.811 128.62 184.996C128.6 174.18 137.142 165.397 147.699 165.377ZM162.048 190.9C161.059 190.211 159.702 190.524 158.963 191.474C157.731 193.061 156.229 194.377 154.538 195.342C152.887 196.284 151.099 196.869 149.269 197.072C148.049 197.207 146.993 198.124 146.924 199.35C146.856 200.576 147.797 201.643 149.021 201.552C151.569 201.363 154.068 200.596 156.359 199.289C158.789 197.902 160.913 195.948 162.585 193.573C163.199 192.7 162.926 191.512 162.048 190.9ZM142.01 195.505C140.624 195.507 139.502 196.651 139.504 198.059C139.507 199.468 140.634 200.608 142.02 200.605C143.407 200.603 144.528 199.459 144.526 198.05C144.523 196.642 143.397 195.502 142.01 195.505ZM132.377 161.652L125.236 169.827L123.304 168.242C125.373 165.075 128.013 162.334 131.073 160.172L132.377 161.652ZM115.966 143.023C111.977 146.025 108.453 149.61 105.518 153.652L95.3014 145.272C95.2798 145.254 95.2593 145.235 95.2379 145.217C98.7309 140.743 102.821 136.731 107.394 133.293L115.966 143.023Z" fill="#1437FF"/>
</svg>
