<svg width="202" height="81" viewBox="0 0 202 81" fill="none" xmlns="http://www.w3.org/2000/svg">
<path d="M40.7596 14.8521C42.5297 13.9716 44.4786 14.7884 45.453 16.7896C46.3297 18.5987 46.4759 21.6084 45.9725 27.5474C45.6964 30.7653 45.55 33.8554 45.5662 35.8726C45.5825 38.2579 45.9405 39.3467 47.0448 40.3873C47.6291 40.9473 47.8564 41.0757 48.3758 41.0757C49.9672 41.0757 51.104 39.7944 51.9647 36.9927C52.7116 34.5752 53.4262 30.1724 53.6698 26.5064C53.9621 22.2002 54.9371 20.0714 56.9344 19.399C57.5675 19.1909 57.746 19.1909 58.4442 19.399C59.4184 19.6711 60.3116 20.5832 60.5877 21.5757C61.1074 23.4808 60.1819 26.6349 57.4051 32.3502C54.6445 38.0495 53.8809 40.4671 54.2381 42.3882C54.433 43.3648 55.0668 44.2292 55.8787 44.6295C56.5769 44.9656 57.0966 44.9815 57.9735 44.6773C59.7596 44.0529 60.8481 42.6761 62.5369 38.898C64.1932 35.152 65.2645 33.4868 66.8397 32.2701C67.0508 32.11 67.5223 32.0298 68.3992 32.0298C69.5518 32.0299 69.6819 32.0625 70.1365 32.4947C70.7372 33.055 71.0294 33.8554 70.9969 34.8638C70.9807 36.2406 70.055 37.7613 68.0252 39.7945C65.4432 42.372 64.0629 44.3577 63.1698 46.8072C62.8876 47.5672 62.662 48.3211 62.4754 49.1812C57.8612 49.5211 54.2197 53.4882 54.2196 58.3355C54.2196 62.3313 56.6945 65.7291 60.1483 66.9908C59.0808 70.0359 56.906 72.4014 54.1248 73.5425C50.5035 75.0474 45.3715 74.7594 40.7596 72.8062C36.7812 71.1253 34.5401 69.5719 29.3924 64.9293C25.3166 61.2632 23.3677 59.7585 20.6883 58.2056C19.7141 57.6614 18.2203 56.7973 17.3758 56.317C14.875 54.8761 13.3161 53.6906 12.1307 52.2818C11.3675 51.4013 11.2052 51.0331 11.0428 49.8004C10.5396 45.8462 14.5505 44.8218 19.0487 47.7515C20.8023 48.8881 21.7281 49.8972 22.8973 51.9302C24.1474 54.107 24.7806 54.8756 25.8846 55.4839C27.8982 56.6366 30.351 55.6599 32.0399 53.0504C34.3781 49.4483 34.2967 45.1417 31.7635 39.0904C31.1627 37.6496 29.344 34.1279 28.4832 32.7349C28.1747 32.2386 27.9315 31.7898 27.9315 31.7418C27.9303 31.6918 27.4916 30.9085 26.9403 30.0132C25.56 27.708 24.6667 25.8187 24.4393 24.73C23.8709 22.0726 25.3489 19.9431 27.7684 19.9429C28.8725 19.9429 29.6196 20.3111 30.3016 21.1753C30.9674 22.0238 31.2109 22.9528 31.828 26.8267C32.916 33.6788 33.5822 35.9685 35.1737 38.4019C36.8463 40.9474 39.9806 41.8597 41.5233 40.2427C42.7735 38.93 42.8712 36.9128 41.8807 33.1187C41.5072 31.7259 41.1497 30.333 41.0848 30.0289C41.0036 29.7247 40.8407 29.0046 40.7108 28.4283C39.7365 24.3623 38.941 19.9439 38.9246 18.6627C38.9084 16.7577 39.5256 15.4765 40.7596 14.8521Z" fill="#005CF2"/>
<path d="M14.9538 16.9289C12.6791 13.7221 13.6923 9.2504 17.127 7.33713C20.6524 5.37333 25.0993 7.00213 26.5222 10.7784L39.503 45.2281C39.8076 46.0365 39.5142 46.9481 38.7952 47.4269C37.9599 47.9833 36.8336 47.7747 36.253 46.9561L14.9538 16.9289Z" fill="#241E1D"/>
<path d="M76.82 50.5C78.2466 50.5 79.4666 51.0067 80.48 52.02C81.4933 53.0333 82 54.2533 82 55.68V63.5H78.82V55.68C78.82 55.12 78.6266 54.6467 78.24 54.26C77.8533 53.8733 77.38 53.68 76.82 53.68C76.2733 53.68 75.8066 53.8733 75.42 54.26C75.0333 54.6467 74.84 55.12 74.84 55.68V63.5H71.66V55.68C71.66 55.12 71.4666 54.6467 71.08 54.26C70.6933 53.8733 70.22 53.68 69.66 53.68C69.1133 53.68 68.6466 53.8733 68.26 54.26C67.8733 54.6467 67.68 55.12 67.68 55.68V63.5H64.5V55.68C64.5 54.2533 65.0066 53.0333 66.02 52.02C67.0333 51.0067 68.2466 50.5 69.66 50.5C71.0466 50.5 72.24 50.9867 73.24 51.96C74.2533 50.9867 75.4466 50.5 76.82 50.5Z" fill="#005CF2"/>
<path d="M83.476 50.84H86.656V63.5H83.476V50.84ZM94.1528 50.54C95.8194 50.54 97.2394 51.16 98.4128 52.4C99.5861 53.6267 100.173 55.1133 100.173 56.86V63.5H97.0128V60.64H91.3128V63.5H88.1328V56.86C88.1328 55.1133 88.7194 53.6267 89.8928 52.4C91.0794 51.16 92.4994 50.54 94.1528 50.54ZM91.3128 57.48H97.0128V56.86C97.0128 55.9933 96.7328 55.2533 96.1728 54.64C95.6128 54.0133 94.9394 53.7 94.1528 53.7C93.3661 53.7 92.6928 54.0133 92.1328 54.64C91.5861 55.2533 91.3128 55.9933 91.3128 56.86V57.48ZM100.98 63.52V50.88H104.16V63.52H100.98ZM108.6 56.82L109.42 59.16C109.7 59.96 110.153 60.36 110.78 60.36H112.8V63.52H110.78C109.846 63.52 108.966 63.2 108.14 62.56C107.326 61.92 106.76 61.1467 106.44 60.24L104.96 56L108.84 50.88H112.8L108.6 56.82ZM120.622 50.94C121.955 50.94 123.088 51.4333 124.022 52.42C124.915 53.3933 125.362 54.5533 125.362 55.9C125.362 57.2333 124.915 58.3867 124.022 59.36C123.088 60.3467 121.955 60.84 120.622 60.84H116.742V63.5H113.602V50.94H120.622ZM120.622 57.7C121.075 57.7 121.455 57.5133 121.762 57.14C122.068 56.7667 122.222 56.3533 122.222 55.9C122.222 55.4333 122.068 55.0133 121.762 54.64C121.455 54.2667 121.075 54.08 120.622 54.08H116.742V57.7H120.622ZM132.875 50.56C134.689 50.56 136.222 51.22 137.475 52.54C138.742 53.8467 139.375 55.4133 139.375 57.24C139.375 59.0533 138.742 60.62 137.475 61.94C136.222 63.26 134.689 63.92 132.875 63.92C131.062 63.92 129.522 63.26 128.255 61.94C126.989 60.62 126.355 59.0533 126.355 57.24C126.355 55.4133 126.989 53.8467 128.255 52.54C129.522 51.22 131.062 50.56 132.875 50.56ZM132.875 60.76C133.809 60.76 134.602 60.4133 135.255 59.72C135.909 59.0133 136.235 58.1867 136.235 57.24C136.235 56.28 135.909 55.4533 135.255 54.76C134.602 54.0533 133.809 53.7 132.875 53.7C131.929 53.7 131.129 54.0533 130.475 54.76C129.822 55.4533 129.495 56.28 129.495 57.24C129.495 58.1867 129.822 59.0133 130.475 59.72C131.129 60.4133 131.929 60.76 132.875 60.76ZM152.903 50.84C154.569 50.84 155.989 51.46 157.163 52.7C158.336 53.94 158.923 55.4333 158.923 57.18C158.923 58.9267 158.336 60.42 157.163 61.66C155.989 62.8867 154.569 63.5 152.903 63.5H146.883V50.84H152.903ZM152.903 60.32C153.689 60.32 154.363 60.0133 154.923 59.4C155.483 58.7867 155.763 58.0467 155.763 57.18C155.763 56.3133 155.483 55.5733 154.923 54.96C154.363 54.3333 153.689 54.02 152.903 54.02H150.063V60.32H152.903ZM166.45 50.56C168.263 50.56 169.796 51.22 171.05 52.54C172.316 53.8467 172.95 55.4133 172.95 57.24C172.95 59.0533 172.316 60.62 171.05 61.94C169.796 63.26 168.263 63.92 166.45 63.92C164.636 63.92 163.096 63.26 161.83 61.94C160.563 60.62 159.93 59.0533 159.93 57.24C159.93 55.4133 160.563 53.8467 161.83 52.54C163.096 51.22 164.636 50.56 166.45 50.56ZM166.45 60.76C167.383 60.76 168.176 60.4133 168.83 59.72C169.483 59.0133 169.81 58.1867 169.81 57.24C169.81 56.28 169.483 55.4533 168.83 54.76C168.176 54.0533 167.383 53.7 166.45 53.7C165.503 53.7 164.703 54.0533 164.05 54.76C163.396 55.4533 163.07 56.28 163.07 57.24C163.07 58.1867 163.396 59.0133 164.05 59.72C164.703 60.4133 165.503 60.76 166.45 60.76Z" fill="#241E1D"/>
<path d="M35.7508 48.1485C35.2996 47.773 34.6234 47.8347 34.3035 48.3269C33.2445 49.9562 32.6887 51.8762 32.7212 53.8416C32.7597 56.165 33.6178 58.3999 35.1416 60.1456C36.6655 61.8913 38.7555 63.0336 41.0368 63.3677C43.3182 63.7019 45.6417 63.2059 47.5907 61.9689C49.5398 60.7318 50.987 58.8345 51.6727 56.6172C52.3585 54.3999 52.238 52.0076 51.3329 49.8691C50.4278 47.7307 48.7972 45.9861 46.7336 44.9481C44.9872 44.0696 43.0274 43.7458 41.1106 44.0053C40.531 44.0838 40.1853 44.6643 40.3256 45.2321C40.4663 45.8019 41.0434 46.1411 41.6272 46.0806C43.053 45.9327 44.4998 46.1944 45.7963 46.8465C47.412 47.6592 48.6886 49.0252 49.3973 50.6994C50.1059 52.3736 50.2002 54.2466 49.6633 55.9826C49.1264 57.7187 47.9934 59.2041 46.4674 60.1726C44.9414 61.1411 43.1223 61.5294 41.3362 61.2678C39.55 61.0062 37.9138 60.1118 36.7207 58.7451C35.5276 57.3783 34.8558 55.6286 34.8257 53.8095C34.8014 52.3428 35.1956 50.9085 35.9505 49.6727C36.253 49.1777 36.1968 48.5195 35.7508 48.1485Z" fill="#241E1D"/>
</svg>
